<svg xmlns="http://www.w3.org/2000/svg" viewBox="0 0 153.65193 53.30773"><defs><style>.a{fill:#fefe78;}.b,.c{stroke:#000;stroke-miterlimit:10;}.b{stroke-width:0.5px;}.c{stroke-width:0.47993px;}</style></defs><title>Asset 1</title><polygon points="6.369 15.938 0 15.938 0 50.22 21.037 50.22 21.037 44.271 6.369 44.271 6.369 15.938"/><rect x="28.37812" y="15.93796" width="6.36945" height="34.28244"/><path d="M61.18771,28.81178,50.77156,15.938H45.09668V50.2204h6.36945V26.43989l8.34531,10.3718a1.75052,1.75052,0,0,0,1.36386.65315h0a1.75049,1.75049,0,0,0,1.37-.66086L70.771,26.462V50.2204H77.1638V15.938h-5.622Z"/><polygon points="148.286 15.938 148.286 39.81 130.161 15.938 125.771 15.938 125.771 50.22 131.097 50.22 131.097 26.561 149.058 50.22 153.652 50.22 153.652 15.938 148.286 15.938"/><path d="M96.42345,8.381c-1.6988.19558,6.59454-8.16518,9.81344-8.37914a2.72315,2.72315,0,0,1,2.23168,2.2744C108.80313,5.23913,102.77283,7.64994,96.42345,8.381Z"/><path class="a" d="M111.97733,42.213c3.65527-6.3877,3.58984-12.88916-.19434-19.32471a13.61807,13.61807,0,0,0-9.67871-6.8916,2.47561,2.47561,0,0,1-1.582-1.21436,1.48827,1.48827,0,0,0-1.94238-.70019l-.11816.04053c-.25391.06933-.333.17041-.60254.77392a6.07212,6.07212,0,0,1-.5.94971c-.14649.21728-.29883.44385-3.96485,2.45849a11.96012,11.96012,0,0,0-3.59375,3.9585,18.31237,18.31237,0,0,0-1.8291,14.5669,32.26831,32.26831,0,0,0,2.08692,4.65234,13.80441,13.80441,0,0,0,9.63476,6.88184,2.25466,2.25466,0,0,1,1.7041,1.22167,1.44529,1.44529,0,0,0,1.48633.7461,1.61142,1.61142,0,0,0,1.34375-1.126,2.56548,2.56548,0,0,1,1.31934-1.43457A12.80158,12.80158,0,0,0,111.97733,42.213Z"/><path d="M111.19022,17.41125a16.16232,16.16232,0,0,0-4.40918-3.04736l-.002-.00147c-.01953-.00879-2.81934-1.03222-3.15527-1.082-.64258-.09277-.74512-.19189-.8584-.43164a4.78231,4.78231,0,0,0-1.86426-1.53613,4.85042,4.85042,0,0,0-3.99121.22656,4.15361,4.15361,0,0,0-2.10254,2.48047A15.98124,15.98124,0,0,0,87.367,20.5177a20.84641,20.84641,0,0,0-1.501,19.248c2.47852,6.32715,6.86426,10.19239,13.03711,11.49121a4.41816,4.41816,0,0,0,3.89258,2.04981l.05859.001.0586-.00585a4.40229,4.40229,0,0,0,4.042-2.917c6.22168-2.84277,9.74609-8.042,10.47656-15.457A20.656,20.656,0,0,0,111.19022,17.41125Zm.78711,24.80176a12.80158,12.80158,0,0,1-6.43066,5.55859,2.56548,2.56548,0,0,0-1.31934,1.43457,1.61142,1.61142,0,0,1-1.34375,1.126,1.44529,1.44529,0,0,1-1.48633-.7461,2.25466,2.25466,0,0,0-1.7041-1.22167,13.80441,13.80441,0,0,1-9.63476-6.88184,32.26831,32.26831,0,0,1-2.08692-4.65234,18.31237,18.31237,0,0,1,1.8291-14.5669,11.96012,11.96012,0,0,1,3.59375-3.9585c3.666-2.01464,3.81836-2.24121,3.96485-2.45849a6.07212,6.07212,0,0,0,.5-.94971c.26953-.60351.34863-.70459.60254-.77392l.11816-.04053a1.48827,1.48827,0,0,1,1.94238.70019,2.47561,2.47561,0,0,0,1.582,1.21436,13.61807,13.61807,0,0,1,9.67871,6.8916C115.56717,29.32385,115.6326,35.82531,111.97733,42.213Z"/><path class="b" d="M93.246,27.46754c.4637-.04952.78811.12477.74773.53437-.02525.25609-.19455.67941-.48684.72773-.31088.05139-.63364-.31821-.7369-.56622C92.61566,27.79282,92.893,27.52865,93.246,27.46754Z"/><path class="b" d="M95.76812,29.80417c-.26839-.014-.72612-.164-.78293-.46939-.0574-.30857.32478-.64648.56463-.72126a.91365.91365,0,0,1,.79574.3698C96.40166,29.06346,95.96275,29.8143,95.76812,29.80417Z"/><path class="b" d="M93.68934,24.603c.057.414-.12749.74724-.52313.70341a.99071.99071,0,0,1-.68881-.56845c-.05076-.15472.27662-.5604.513-.65351C93.37152,23.93434,93.629,24.19321,93.68934,24.603Z"/><path class="b" d="M90.98,26.74925a.95411.95411,0,0,1,.50545.72435c.00364.21889-.35369.63337-.52658.6206a.91132.91132,0,0,1-.67594-.5468C90.23516,27.326,90.89115,26.708,90.98,26.74925Z"/><path class="b" d="M96.33714,26.39892a.79954.79954,0,0,1-.62791.50808c-.26744-.03607-.71159-.2221-.74516-.53193-.0334-.3083.3566-.60144.60689-.68406A.58281.58281,0,0,1,96.33714,26.39892Z"/><path class="b" d="M91.6717,29.80577a.93521.93521,0,0,1,.53012.71416.90248.90248,0,0,1-.588.6331c-.16753.03879-.58737-.3155-.60928-.524C90.97823,30.37911,91.58841,29.77015,91.6717,29.80577Z"/><path class="c" d="M93.94172,30.71884c.51063-.04527.68738.56124.66264.73016-.03627.2476-.22208.66443-.53254.69665-.31321.0325-.58371-.341-.66825-.57763C93.347,31.40976,93.42081,30.765,93.94172,30.71884Z"/><path class="b" d="M92.662,33.252c.45093-.04057.56381.55.5537.7307a.72927.72927,0,0,1-.46682.52247c-.14092.0302-.47418-.25564-.50134-.434C92.21838,33.87946,92.21248,33.2924,92.662,33.252Z"/><path class="b" d="M96.60657,23.16639c.02424.46475-.57233.52369-.77178.5268-.17232.00269-.50322-.29334-.48812-.4259a.74386.74386,0,0,1,.44722-.54C95.97132,22.69029,96.5826,22.7067,96.60657,23.16639Z"/></svg>