<svg xmlns="http://www.w3.org/2000/svg" viewBox="0 0 191.97749 306.81448"><defs><style>.a{fill:#fefe78;}.b,.c{stroke:#000;stroke-miterlimit:10;}.b{stroke-width:2.87777px;}.c{stroke-width:2.76227px;}</style></defs><title>Asset 2</title><path d="M70.34925,48.23681C60.57172,49.3625,108.30436,1.24189,126.83084.01044c4.57479-.30409,12.05329,6.08378,12.84448,13.09037C141.60094,30.154,106.89334,44.02951,70.34925,48.23681Z"/><path class="a" d="M159.87014,242.95841c21.038-36.7646,20.66146-74.184-1.11851-111.224-12.98368-22.09473-31.72851-35.43813-55.70615-39.66485-3.985-.70258-7.44735-4.01876-9.10544-6.98927-2.38877-4.26044-6.78411-5.837-11.17945-4.03l-.68009.23325c-1.46137.39907-1.91664.9808-3.46794,4.45436A34.94282,34.94282,0,0,1,75.73479,91.204c-.84309,1.25059-1.71991,2.55458-22.81979,14.15-8.04313,5.41267-14.81038,12.86564-20.68395,22.78326-15.07455,25.48116-18.61556,53.68834-10.52746,83.84026,2.0965,7.80144,10.54432,24.10129,12.01131,26.77672,13.52888,22.21838,31.71164,35.2414,55.45322,39.60864a12.977,12.977,0,0,1,9.808,7.03142,8.31835,8.31835,0,0,0,8.55461,4.29417,9.27463,9.27463,0,0,0,7.734-6.4806,14.76565,14.76565,0,0,1,7.59348-8.25672C139.09063,268.285,151.54035,257.52148,159.87014,242.95841Z"/><path d="M155.3399,100.211a93.02148,93.02148,0,0,0-25.3772-17.53919l-.01123-.00842c-.11243-.0506-16.22681-5.941-18.16028-6.22772-3.69836-.53394-4.28857-1.10443-4.94055-2.48432-2.22015-4.69043-10.65112-8.8103-10.7298-8.84124a27.91671,27.91671,0,0,0-22.97155,1.304,23.90627,23.90627,0,0,0-12.1012,14.27637A91.98069,91.98069,0,0,0,18.22442,118.0903c-20.94251,34.69617-23.854,71.96942-8.63892,110.78278C23.8507,265.28921,49.093,287.53567,84.621,295.01114c4.92932,7.67779,12.46093,11.64593,22.40387,11.79773l.33721.00561.33729-.03375c11.80328-1.20844,19.62164-6.85156,23.26379-16.78882,35.80908-16.36169,56.094-46.286,60.29822-88.9635C195.16772,161.43948,183.07775,127.51889,155.3399,100.211Zm4.53021,142.74737c-8.32977,14.56305-20.77948,25.3266-37.0119,31.99268a14.7656,14.7656,0,0,0-7.59345,8.25671,9.27461,9.27461,0,0,1-7.734,6.48059,8.31834,8.31834,0,0,1-8.55463-4.29419,12.97692,12.97692,0,0,0-9.808-7.03137c-23.74158-4.36725-41.92438-17.39026-55.45325-39.60864-1.467-2.67548-9.9148-18.97528-12.01129-26.77673-8.08814-30.15192-4.54712-58.35913,10.52746-83.84027,5.87354-9.91761,12.64081-17.37061,20.6839-22.78327,21.09992-11.5954,21.97675-12.89935,22.81983-14.15a34.94077,34.94077,0,0,0,2.87774-5.46607c1.55133-3.47357,2.00659-4.05529,3.468-4.45434l.68011-.23328c4.39533-1.807,8.79065-.23041,11.17945,4.03,1.65808,2.97046,5.12036,6.28668,9.1054,6.98926,23.97767,4.22668,42.72248,17.57013,55.70618,39.66485C180.53161,168.77438,180.9082,206.19382,159.87011,242.9584Z"/><path class="b" d="M52.06111,158.09035c2.66882-.285,4.536.71815,4.30354,3.07557-.14531,1.47393-1.11973,3.91041-2.802,4.18849-1.78926.29577-3.64692-1.83144-4.24121-3.25889C48.43338,159.96253,50.02938,158.44206,52.06111,158.09035Z"/><path class="b" d="M66.57747,171.53893c-1.54472-.0804-4.17923-.94405-4.50618-2.70158-.33038-1.776,1.86928-3.72087,3.24974-4.15128,1.18981-.371,3.58134.70217,4.5799,2.12843C70.22384,167.27572,67.69769,171.59723,66.57747,171.53893Z"/><path class="b" d="M54.613,141.60318c.32818,2.3826-.73374,4.30074-3.01085,4.04847a5.70189,5.70189,0,0,1-3.96449-3.2717c-.29215-.89053,1.5921-3.2254,2.95284-3.7613C52.78377,137.75489,54.26546,139.24483,54.613,141.60318Z"/><path class="b" d="M39.01934,153.95624a5.4913,5.4913,0,0,1,2.90912,4.169c.02095,1.25985-2.03563,3.64539-3.03075,3.57189-1.44593-.1068-3.59876-1.796-3.89037-3.14711C34.73231,157.2758,38.50792,153.7186,39.01934,153.95624Z"/><path class="b" d="M69.85248,151.93989c-.47738,1.53383-2.56,3.06645-3.614,2.92428-1.53923-.20762-4.09555-1.2783-4.28876-3.06153-.19225-1.77444,2.05244-3.46162,3.493-3.93715C67.65405,147.13552,70.81124,148.8594,69.85248,151.93989Z"/><path class="b" d="M43.00041,171.54814c1.61815.692,3.09758,2.77735,3.05108,4.11036-.04657,1.33474-1.96783,3.31578-3.38452,3.64381-.96423.22327-3.38063-1.81588-3.50671-3.0158C39.00909,174.848,42.521,171.34311,43.00041,171.54814Z"/><path class="c" d="M56.06557,176.8033c2.939-.26051,3.95622,3.23024,3.81382,4.20249-.20873,1.42506-1.27819,3.82415-3.06506,4.00958-1.80266.18706-3.35954-1.96282-3.84611-3.32458C52.64277,180.77994,53.06747,177.06907,56.06557,176.8033Z"/><path class="b" d="M48.70013,191.38276c2.59535-.2335,3.245,3.16538,3.18684,4.20553a4.19723,4.19723,0,0,1-2.6868,3.0071c-.81105.17382-2.72914-1.47135-2.88544-2.49821C46.14684,194.99439,46.11285,191.61553,48.70013,191.38276Z"/><path class="b" d="M71.40321,133.33493c.1395,2.67491-3.29407,3.01415-4.442,3.032-.9918.01547-2.8963-1.68835-2.8094-2.45126a4.28132,4.28132,0,0,1,2.574-3.10776C67.747,130.59473,71.26523,130.6892,71.40321,133.33493Z"/></svg>