<svg xmlns="http://www.w3.org/2000/svg" viewBox="0 0 723.98894 322.04457"><defs><style>.a{fill:#a8a8a8;}</style></defs><title>happyhour</title><path class="a" d="M370.53028,226.43694c-.15045,35.86459-26.63458,67.49893-61.11688,72.11084-20.61933,2.75775-37.827-5.33759-52.74936-18.94544-13.94971-12.72082-23.90735-27.78278-25.738-47.09369-2.47345-26.09176,6.62189-47.69325,27.28574-63.57265,20.13568-15.47354,42.6354-16.92117,65.61346-6.89228,21.88309,9.551,38.201,24.68229,44.72028,48.57969a51.33667,51.33667,0,0,1,1.4617,7.33818C370.34537,220.767,370.36957,223.61018,370.53028,226.43694Zm-18.82977-.09818c-.34818-2.96854-.47141-5.98419-1.08115-8.898-3.81958-18.2519-16.0994-29.44791-32.01584-37.13575-36.61365-17.68487-67.3259,10.238-69.28491,41.583-1.54453,24.71353,20.081,52.35388,44.65738,57.2254a42.21306,42.21306,0,0,0,15.30868.32529C333.0683,275.17027,351.59583,251.57344,351.70051,226.33876Z"/><path class="a" d="M564.1409,244.9894c7.77387,12.27923,15.50544,24.30694,22.99433,36.484a15.61849,15.61849,0,0,1,2.59192,7.81894c-.05506,4.14325-2.66584,7.11212-6.85236,8.19565-4.64276,1.2016-8.1557-.6084-10.64484-4.51318-8.23663-12.92115-16.57336-25.78244-24.55017-38.8628-2.264-3.71237-4.55664-5.4609-9.08325-4.85144-4.21979.56815-8.57629.12137-13.97241.12137,1.03857,10.46591,2.04486,20.6586,3.07068,30.84931.08313.82556.33472,1.63284.449,2.45678.91321,6.58194-1.83734,11.20508-7.28143,12.26538-5.56793,1.08442-10.61041-2.479-11.27667-9.19058-1.47876-14.89673-2.9845-29.84-3.31561-44.79-.51288-23.14836-.01807-46.31825-.0351-69.47895-.00378-5.12767,2.003-8.98287,6.99616-10.22744,16.16387-4.029,32.49737-5.89671,48.89892-1.44615,22.00507,5.97107,32.6341,23.05782,29.74158,46.97511-2.05554,16.99695-9.95593,29.76313-25.82477,37.06122C565.4863,244.1144,564.97861,244.48717,564.1409,244.9894Zm-38.82006-15.21912c11.28765,1.765,23.65655.7149,31.78564-2.60434,14.25372-5.82,21.36737-26.91655,13.41516-40.14725a15.3158,15.3158,0,0,0-4.696-5.05009c-12.80512-7.98854-26.51587-6.09743-40.50482-4.164Z"/><path class="a" d="M135.96949,63.05714l44.83783-2.33625c0-8.84262.17318-17.94756-.05683-27.0423-.17241-6.81684-.78131-13.62745-1.3488-20.42807C178.90288,7.273,182.1458,2.6529,187.50484,2.044c5.60457-.63684,9.886,2.73706,10.62555,8.768a150.12343,150.12343,0,0,1,1.21713,15.42958q.94758,50.72841,1.68631,101.46071c.01616.99977.05486,2.00186.00919,2.99948-.27409,5.98625-4.21651,10.14811-9.54768,10.10641-5.36179-.042-9.182-4.18184-9.31737-10.24443q-.49116-21.99238-.89581-43.98669c-.03585-1.82338-.00489-3.64808-.00489-6.85537l-44.51173,2.18306c0,15.11187-.02365,29.52.03581,43.92781.00609,1.47526.61823,2.93792.76318,4.42455a9.18681,9.18681,0,0,1-7.42565,10.281c-4.7533,1.0186-9.82978-1.59849-10.74553-6.59582a187.09267,187.09267,0,0,1-2.72145-23.26008c-.35119-6.29826.56959-12.658.42749-18.97923-.34043-15.14326-1.184-30.27663-1.42289-45.42033-.18618-11.80309-.08221-23.63151.509-35.41777.31638-6.30746,5.21283-9.69172,10.94919-8.78183,5.24573.83206,8.21045,5.48361,7.50183,11.5939C132.72478,30.16151,134.52681,46.51629,135.96949,63.05714Z"/><path class="a" d="M154.31833,239.26323c-.67549,15.70163-2.45141,30.61423.56548,45.50186,1.43413,7.07706-1.26267,12.07089-7.08333,13.18106-5.52745,1.05426-10.3689-2.43231-11.31192-9.20581-1.144-8.21658-2.47174-16.61221-1.94939-24.81766,1.55135-24.36883-.36787-48.58422-1.62286-72.85788a148.61225,148.61225,0,0,1,1.01244-22.90748c.64177-6.17993,5.14982-9.56545,10.49293-8.90251,5.31458.65937,8.04189,5.09912,8.0788,11.2537.09575,15.95467.597,31.907.96535,47.85961a9.13609,9.13609,0,0,0,.54235,1.9975c14.56812-.74741,28.9916-1.48737,43.87706-2.25107a22.975,22.975,0,0,0,.35936-3.36315c-.30906-14.80395-.58882-29.60926-1.04609-44.409-.18787-6.08027,2.92947-10.50621,8.302-11.08871,5.28554-.57308,9.81634,3.06511,10.46553,9.0634.73335,6.77586,1.186,13.60525,1.3123,20.41969.57683,31.13626,1.00076,62.27533,1.46393,93.41364a55.23591,55.23591,0,0,1-.11922,7.48053,9.28089,9.28089,0,0,1-9.46672,8.4555,9.13171,9.13171,0,0,1-9.10463-9.32446c-.3902-15.15131-.79266-30.30585-.84259-45.46024-.0146-4.43127-1.16321-6.32409-5.85564-6.0296C180.43676,238.08278,167.50229,238.61073,154.31833,239.26323Z"/><path class="a" d="M464.91065,210.40919c-.59753-12.48263-1.25061-24.963-1.77158-37.4488-.3078-7.37639,3.11338-11.69487,9.08-11.80084,5.72034-.1016,9.416,3.92512,9.73474,10.93493,1.12781,24.80191,2.48584,49.59871,3.17841,74.41359.71692,25.68518-18.07962,48.40564-42.65473,52.043a42.20555,42.20555,0,0,1-12.88891-.33176c-22.60193-3.75988-42.89469-27.52368-43.38428-50.34713-.52182-24.32383-1.1369-48.64568-1.704-72.96856a38.60928,38.60928,0,0,1,.005-4.99313,9.393,9.393,0,0,1,9.26078-8.74257,9.17706,9.17706,0,0,1,9.44125,9.01592c.43271,9.82092.62381,19.65318.85565,29.48213.37726,15.99307.65781,31.98852,1.06824,47.98068.48492,18.89606,21.43692,36.11823,38.27841,31.53845,12.93308-3.51693,23.02854-17.43878,22.89505-31.81079-.05722-6.16247-.53-12.32019-.64712-18.48324-.117-6.1597-.02567-12.32338-.02567-18.48532Z"/><path class="a" d="M461.57392,95.26205c3.47937,10.40522,7.09842,21.24369,10.72885,32.07833,1.74521,5.20837-.147,10.08194-4.74689,12.16722-4.8569,2.2018-9.93847.26478-12.52234-4.83238a22.03753,22.03753,0,0,1-1.72964-4.1397C448.284,111.922,442.96625,93.379,438.437,74.6457c-4.14307-17.13605-7.3768-34.49085-11.09922-51.73026-1.457-6.74788.07785-10.44067,6.34284-13.33632C446.14966,3.816,459.0394-.51484,472.9263-1.09126c26.76435-1.11092,43.19391,13.49407,45.31037,40.24809,1.71612,21.69294-7.133,37.73911-27.00525,46.57042C482.21048,89.73622,472.35538,91.868,461.57392,95.26205Zm-3.81964-20.29991c9.81854-.05244,23.48452-4.17456,30.75485-9.10769,12.726-8.635,15.28693-30.791,4.70581-42.127a16.143,16.143,0,0,0-6.55688-4.34556c-13.89991-4.37867-26.6597.1025-39.26114,4.70931C450.948,41.53275,454.32724,58.13007,457.75428,74.96214Z"/><path class="a" d="M351.21052,94.746c3.582,10.7274,7.00885,21.28366,10.64083,31.76889,2.62384,7.57492-1.60189,14.23007-9.00344,13.78216-4.57819-.27707-7.42334-2.97136-8.64817-7.12373-4.7464-16.09114-9.9024-32.09274-13.82416-48.388-5.01956-20.85673-8.93917-41.9768-13.46328-62.95524-.99924-4.63362-.10782-8.71663,4.02658-10.79688C338.61313,2.14024,357.03992-3.84233,377.17142,0c13.94379,2.66133,23.10965,11.29749,27.75708,24.58921,10.206,29.18953-1.24057,53.46823-30.33423,63.88953C367.44712,91.03885,359.89087,92.45686,351.21052,94.746Zm-3.46583-18.86353c7.0329-1.71776,13.92316-2.819,20.40232-5.09209,19.56293-6.86331,26.03158-21.43492,18.686-40.83226-2.45974-6.49544-7.10736-10.47676-13.80755-11.65623-12.58335-2.21509-24.2598,1.27227-35.79694,5.89364C340.72751,41.39293,344.13062,58.11926,347.74469,75.88246Z"/><path class="a" d="M245.92035,94.33875c-1.30023,10.03608-2.592,19.89785-3.84436,29.76466-.25106,1.97787-.18563,4.00632-.555,5.95672a9.332,9.332,0,0,1-9.56833,7.78786c-4.82452-.21936-9.11609-4.0352-8.76619-9.065.72621-10.43916,1.92888-20.85944,3.32588-31.23494,3.7952-28.18726,7.8093-56.345,11.69684-84.51993.66809-4.84187,3.65146-8.32453,8.10446-8.80472,4.68192-.50489,7.94812,1.55491,9.98777,5.82148,17.56787,36.7483,39.72451,70.735,62.782,104.17691.4718.68428,1.0451,1.29863,1.51593,1.9835,3.22009,4.6836,2.60852,10.237-1.46115,13.409a9.34347,9.34347,0,0,1-13.62262-2.17807c-7.12357-10.03969-14.25437-20.11018-20.65567-30.6109-3.10971-5.10118-6.15585-7.0233-12.2-5.84731C264.19263,92.62547,255.51468,93.19031,245.92035,94.33875ZM253.59418,46.21c-1.56439,10.33914-2.91141,19.24168-4.3428,28.70205l20.00693-2.4194C263.99,63.65306,259.1742,55.57261,253.59418,46.21Z"/><path class="a" d="M567.44449,55.87331c10.8584-15.68417,21.26752-30.73172,31.69727-45.765a28.19909,28.19909,0,0,1,3.34729-4.33541,9.01379,9.01379,0,0,1,11.89-.67133c3.70179,2.89153,4.82538,6.69315,3.08332,11.10185A22.14754,22.14754,0,0,1,614.9,20.46239C603.268,37.30578,591.53873,54.083,580.06388,71.03256a13.85209,13.85209,0,0,0-2.1883,7.74468c.51117,14.97157,1.42048,29.92909,2.11512,44.89506.32348,6.97023-3.0373,11.28836-8.80219,11.6026-6.03271.32884-9.72742-3.71827-10.06769-10.95823-.6878-14.6328-1.3128-29.2697-2.19329-43.89109a16.45024,16.45024,0,0,0-2.31342-6.81424C545.83219,54.69393,534.81125,35.912,524.13126,16.93791A9.03164,9.03164,0,0,1,528.25193,4.2c4.86487-2.36849,9.96948-.46659,12.94085,4.89967q11.48136,20.73532,22.92756,41.49021C564.99119,52.16175,566.032,53.6395,567.44449,55.87331Z"/><path class="a" d="M716.51786,287.66685c-3.95764-1.18026-7.45594-1.79852-10.58527-3.22586-20.2702-9.24523-40.48553-18.62316-58.67883-31.71615-9.24848-6.65579-17.69269-14.11164-23.47461-24.14017-.74567-1.29333-1.80078-2.63129-1.90973-4.0119-.13422-1.70032.57355-3.46707.91748-5.20508,1.58386.47415,3.79736.43668,4.65942,1.49744,20.59638,25.34448,49.07105,38.59359,77.98359,51.256a82.94924,82.94924,0,0,1,13.38647,7.516c1.37982.94211,2.35754,3.70844,2.08032,5.40552C720.71372,286.163,717.96378,286.864,716.51786,287.66685Z"/><path class="a" d="M723.32779,14.87674c-2.2594,3.1138-3.94036,7.03419-6.9071,9.16167A75.04012,75.04012,0,0,1,699.873,33.07356C680.16556,40.6657,660.295,47.83968,640.4039,54.941c-1.72393.61546-4.05786-.47745-6.10839-.77678.63543-2.01426.64917-5.04438,2.00824-5.87621A250.90043,250.90043,0,0,1,661.4155,34.25821c8.27136-3.83581,17.29138-6.043,25.61847-9.77746,7.38208-3.31058,14.21265-7.8338,21.39258-11.62076a31.88129,31.88129,0,0,1,9.06958-3.55725C720.561,8.76859,722.41648,10.83743,723.32779,14.87674Z"/><path class="a" d="M618.58011,146.60651c14.945,3.72886,29.9032,7.40527,44.83081,11.20205q20.512,5.21712,40.96589,10.66184a42.047,42.047,0,0,1,8.45819,2.88975c1.52166.77977,2.45807,2.7016,3.65777,4.10952-1.5755,1.20918-3.10748,3.38049-4.73437,3.454-5.75562.26025-11.83643.88041-17.26172-.59415-13.59729-3.69563-26.84143-8.66837-40.34412-12.74126-12.87555-3.88377-25.90484-7.2566-38.85174-10.90671-2.23334-.62965-5.8786-.452-4.90412-4.00061.36554-1.33119,3.77631-1.87336,5.84259-2.66015a5.923,5.923,0,0,1,1.98224-.03375Q618.4008,147.2968,618.58011,146.60651Z"/><path class="a" d="M644.1763,105.818c-5.34271-.543-11.16485-.92154-16.89489-1.86147-1.50373-.24664-2.72193-2.23381-4.07123-3.42167,1.33282-.96,2.586-2.60839,4.01086-2.77344,14.05622-1.628,28.16187-2.83539,42.21064-4.51909,10.40618-1.24718,20.713-3.38673,31.13433-4.42161,5.88575-.58449,11.93537.03716,17.86206.6173,1.50562.14737,2.82367,2.21067,4.22791,3.39362-1.277,1.118-2.39087,2.86578-3.85889,3.24579-6.58331,1.70412-13.20166,3.59344-19.92785,4.36359C680.84366,102.50507,662.75626,104.0295,644.1763,105.818Z"/><path class="a" d="M32.69731,149.18019c-9.14628-.40085-18.29566-.74446-27.43674-1.241-2.41844-.13138-5.759-.16681-5.19818-3.6498.21087-1.30963,3.32626-2.98425,5.18242-3.06889,21.11508-.96274,42.24239-1.65942,63.36774-2.38947a10.68425,10.68425,0,0,1,4.44357.39513c1.58676.68619,2.87786,2.05609,4.29682,3.13033-1.27948,1.48129-2.36645,3.98016-3.87227,4.265a132.62587,132.62587,0,0,1-18.29436,2.21485c-7.47642.3557-14.98266.08465-22.476.08465Z"/><path class="a" d="M27.17941,224.05721c-.8568-.734-2.89565-1.664-3.17231-2.9679-.23481-1.10666,1.35566-2.87982,2.52617-3.923a11.65491,11.65491,0,0,1,4.01524-1.916c16.16308-5.50661,32.31865-11.03735,48.53466-16.38448a24.84942,24.84942,0,0,1,8.33858-1.14376c1.48119.04168,3.80067,1.25566,4.141,2.41182.36052,1.22467-.80745,3.43652-1.97469,4.44656a16.86068,16.86068,0,0,1-6.08044,3.29831c-17.79737,5.28047-35.63958,10.40982-53.4707,15.57635C29.401,223.63936,28.7386,223.73225,27.17941,224.05721Z"/><path class="a" d="M86.839,250.51857c5.33185-.035,6.70625,1.88782,4.40634,5.16837-1.85942,2.65219-4.18951,5.57879-7.0039,6.85366-12.98387,5.88163-26.17221,11.3226-39.40182,16.63633-1.51791.60968-3.75185-.56336-5.6538-.90979,1.07037-1.62235,1.76457-3.90451,3.27042-4.763q18.61961-10.615,37.52934-20.71726C82.41553,251.48354,85.29239,251.01338,86.839,250.51857Z"/><path class="a" d="M652.013,322.04457c-3.41632-1.97162-7.51641-3.59936-10.69421-6.30884-9.99994-8.526-17.51764-19.11679-23.55011-30.72284-.7052-1.35672.13654-3.51745.26111-5.30545,1.63422.61045,3.90887.73282,4.80347,1.90686,8.90319,11.68436,18.1286,23.01651,30.14868,31.73642a9.32938,9.32938,0,0,1,2.63275,2.9711c.65778,1.20136,1.543,3.01483,1.07519,3.89319C656.20023,321.13438,654.21982,321.25987,652.013,322.04457Z"/><path class="a" d="M64.02588,83.162c-13.15742-1.81959-26.63159-3.62379-40.07509-5.63315-1.3535-.2023-2.52148-1.64573-3.77556-2.51319,1.33-.9569,2.55987-2.54306,4.00557-2.77319,14.15657-2.25349,28.089-.26189,41.94713,2.62894a2.78006,2.78006,0,0,1,1.39378.49014c1.57268,1.65762,3.06509,3.39139,4.58546,5.09864-1.9249.9006-3.82625,1.85846-5.78945,2.66592A7.21182,7.21182,0,0,1,64.02588,83.162Z"/><path class="a" d="M78.659,36.68761c-.56248,3.59748-2.07148,4.95156-4.93976,3.56369-6.12583-2.96411-12.59964-5.46274-18.16609-9.2702-8.48363-5.80281-16.37244-12.48744-24.37205-18.97252-1.19436-.96823-1.61638-2.88919-2.39568-4.3694,1.76508.32534,3.82839.17089,5.24746,1.05292,10.16957,6.321,20.16555,12.92075,30.31092,19.28162C67.99837,30.265,71.9443,32.087,75.68844,34.24264A20.85053,20.85053,0,0,1,78.659,36.68761Z"/></svg>